<?xml version="1.0" standalone="no"?>
<!DOCTYPE svg PUBLIC "-//W3C//DTD SVG 20010904//EN"
 "http://www.w3.org/TR/2001/REC-SVG-20010904/DTD/svg10.dtd">
<svg version="1.0" xmlns="http://www.w3.org/2000/svg"
 width="53.000000pt" height="55.000000pt" viewBox="0 0 53.000000 55.000000"
 preserveAspectRatio="xMidYMid meet">

<g transform="translate(0.000000,55.000000) scale(0.100000,-0.100000)"
fill="#000000" stroke="none">
<path d="M164 536 c-17 -13 -15 -14 21 -6 22 5 50 7 63 3 13 -3 22 -1 22 6 0
16 -83 14 -106 -3z"/>
<path d="M300 533 c38 -7 50 -31 50 -99 0 -63 -7 -78 -45 -87 -15 -4 -14 -5 7
-6 37 -1 48 23 48 108 0 76 -11 93 -62 90 -22 -2 -22 -2 2 -6z"/>
<path d="M248 503 l62 -4 0 -37 c0 -20 3 -47 6 -59 6 -22 4 -23 -60 -23 l-66
0 -1 58 -1 57 -10 -59 c-11 -72 -5 -78 72 -70 79 8 80 9 80 56 0 85 -4 88 -79
86 l-66 -2 63 -3z"/>
<path d="M146 463 c-9 -59 -7 -100 7 -110 6 -6 31 -13 55 -16 42 -5 60 -13 51
-21 -7 -7 -199 -11 -199 -5 0 11 31 20 42 12 7 -3 8 -1 4 5 -4 7 -18 12 -32
12 -17 0 -24 -5 -24 -20 0 -11 -6 -20 -14 -20 -16 0 -22 -33 -30 -173 -5 -78
-3 -90 14 -107 21 -21 68 -25 105 -11 13 5 4 8 -27 8 -77 0 -82 8 -74 147 4
66 8 122 10 124 2 2 92 5 200 7 l196 4 0 -26 c0 -24 2 -24 41 -18 39 7 40 6
37 -16 -3 -21 -10 -25 -52 -29 -45 -5 -52 -2 -82 28 -27 27 -39 32 -80 32 -49
0 -114 -29 -114 -50 0 -6 -30 -11 -67 -12 l-68 -2 58 -3 c57 -4 82 -23 30 -23
-16 0 -35 -5 -43 -11 -11 -8 -6 -9 22 -7 34 4 36 2 36 -22 -1 -14 2 -35 6 -47
7 -21 4 -22 -51 -26 l-58 -3 68 -2 c61 -2 83 7 57 23 -5 3 -10 17 -10 31 0 17
5 24 20 24 11 0 20 -5 20 -11 0 -7 12 -22 28 -35 31 -27 83 -32 102 -9 16 20
40 19 40 -1 0 -10 -6 -14 -15 -10 -8 3 -14 0 -12 -6 3 -17 -63 -38 -98 -31
-42 8 -48 13 -33 30 12 15 11 15 -9 2 -30 -18 -29 -25 5 -37 25 -10 24 -10
-18 -11 -33 -1 -41 -4 -30 -11 8 -5 85 -10 171 -10 119 0 160 3 175 14 17 13
19 27 19 139 0 90 -4 128 -14 140 -11 14 -34 17 -128 17 -94 0 -114 3 -110 14
6 14 -30 26 -79 26 -34 0 -47 31 -38 96 7 61 0 74 -10 17z m361 -179 c2 -7
-11 -13 -32 -16 -29 -3 -35 -1 -35 15 0 15 6 18 32 15 17 -2 33 -8 35 -14z
m-217 -33 c0 -5 -10 -12 -22 -14 -14 -3 -9 -5 15 -6 71 -2 99 -64 54 -117 -66
-76 -166 12 -111 96 l17 25 -25 -25 c-14 -14 -23 -33 -20 -42 3 -13 -2 -18
-17 -18 -32 0 -26 25 17 68 35 35 92 55 92 33z m30 -1 c0 -5 -4 -10 -10 -10
-5 0 -10 5 -10 10 0 6 5 10 10 10 6 0 10 -4 10 -10z m45 -20 c10 -11 13 -20 7
-20 -7 0 -12 5 -12 10 0 6 -7 10 -15 10 -8 0 -15 5 -15 10 0 16 15 12 35 -10z
m25 -40 c0 -5 -4 -10 -10 -10 -5 0 -10 5 -10 10 0 6 5 10 10 10 6 0 10 -4 10
-10z m80 1 l-45 -5 45 -6 45 -7 -52 -1 c-41 -2 -53 1 -53 13 0 12 12 15 53 13
l52 -1 -45 -6z m-70 -36 c0 -8 -4 -15 -9 -15 -5 0 -8 -6 -7 -12 0 -7 -3 -14
-9 -15 -5 -2 -10 2 -9 7 1 6 2 19 3 30 1 23 31 28 31 5z m110 -5 c0 -5 -22
-10 -50 -10 -27 0 -50 5 -50 10 0 6 23 10 50 10 28 0 50 -4 50 -10z m0 -30 c0
-5 -19 -11 -42 -12 l-43 -1 43 -4 c28 -3 42 -9 42 -19 0 -10 -16 -14 -62 -16
l-63 -1 65 -7 c40 -4 51 -7 29 -8 -20 -1 -58 -5 -85 -8 l-49 -7 23 23 c13 12
27 33 32 46 8 21 16 24 60 24 27 0 50 -4 50 -10z m-16 -90 c-11 -11 -69 -15
-144 -10 l-55 4 75 6 c125 11 135 11 124 0z"/>
<path d="M255 469 c-4 -6 -14 -8 -22 -5 -8 3 -19 3 -25 0 -12 -7 20 -44 38
-44 13 0 44 37 44 52 0 12 -28 10 -35 -3z"/>
<path d="M83 133 c9 -2 23 -2 30 0 6 3 -1 5 -18 5 -16 0 -22 -2 -12 -5z"/>
<path d="M68 93 c12 -2 32 -2 45 0 12 2 2 4 -23 4 -25 0 -35 -2 -22 -4z"/>
<path d="M118 43 c12 -2 30 -2 40 0 9 3 -1 5 -23 4 -22 0 -30 -2 -17 -4z"/>
</g>
</svg>
